<svg version="1.1" id="Layer_1" xmlns="http://www.w3.org/2000/svg" xmlns:xlink="http://www.w3.org/1999/xlink" x="0px" y="0px"
	 width="100%" viewBox="0 0 498 136" enable-background="new 0 0 498 136" xml:space="preserve">
<path fill="#05374C" opacity="1.000000" stroke="none" 
	d="
M388.000000,137.000000 
	C258.666718,137.000000 129.833420,137.000000 1.000104,137.000000 
	C1.000069,91.666733 1.000069,46.333458 1.000035,1.000140 
	C166.999878,1.000093 332.999756,1.000093 498.999725,1.000047 
	C498.999817,46.333195 498.999817,91.666389 498.999908,136.999786 
	C462.166656,137.000000 425.333344,137.000000 388.000000,137.000000 
M72.500069,3.172565 
	C49.744720,3.172565 26.989374,3.172565 4.330188,3.172565 
	C4.330188,47.403770 4.330188,90.968987 4.330188,134.573730 
	C168.699463,134.573730 332.742126,134.573730 497.008392,134.573730 
	C497.008392,90.762154 497.008392,47.204460 497.008392,3.172566 
	C355.659973,3.172566 214.580017,3.172566 72.500069,3.172565 
z"/>
<path fill="#FCFDFD" opacity="1.000000" stroke="none" 
	d="
M73.000076,3.172565 
	C214.580017,3.172566 355.659973,3.172566 497.008392,3.172566 
	C497.008392,47.204460 497.008392,90.762154 497.008392,134.573730 
	C332.742126,134.573730 168.699463,134.573730 4.330188,134.573730 
	C4.330188,90.968987 4.330188,47.403770 4.330188,3.172565 
	C26.989374,3.172565 49.744720,3.172565 73.000076,3.172565 
M150.500244,13.391372 
	C105.405022,13.391372 60.309799,13.391372 15.083321,13.391372 
	C15.083321,50.672180 15.083321,87.406807 15.083321,124.330414 
	C93.546387,124.330414 171.750885,124.330414 250.130646,124.330414 
	C250.130646,87.323669 250.130646,50.595665 250.130646,13.391392 
	C217.058899,13.391392 184.279572,13.391392 150.500244,13.391372 
M321.974060,74.395622 
	C321.835846,78.651649 323.771301,83.924500 316.852631,84.634979 
	C322.246643,84.634979 327.640656,84.634979 332.643555,84.634979 
	C331.081299,83.623810 328.194336,82.726570 328.031219,81.474495 
	C327.453339,77.038521 327.805969,72.481323 327.805969,67.970070 
	C328.378540,67.779503 328.951111,67.588936 329.523712,67.398369 
	C332.988708,72.374550 336.453735,77.350731 339.973663,82.405754 
	C338.290009,83.292648 337.137146,83.899925 335.686340,84.664169 
	C341.688385,84.664169 347.179291,84.664169 353.892609,84.664169 
	C343.222198,80.840324 340.902740,71.194824 334.272644,64.223846 
	C340.187469,59.416817 345.548004,55.060291 350.286743,51.209087 
	C347.032410,51.209087 342.589447,51.209087 337.148621,51.209087 
	C339.343079,52.175060 340.603394,52.729828 342.482422,53.556946 
	C337.723236,58.105865 333.318970,62.315559 328.005615,67.394180 
	C328.005615,61.589432 328.005615,57.503002 328.005615,53.457264 
	C329.875854,52.779705 331.483429,52.197319 334.411682,51.136463 
	C327.544830,51.136463 322.169983,51.136463 316.795166,51.136463 
	C322.147552,52.030212 322.283478,55.711575 322.033325,59.950405 
	C321.769135,64.427307 321.974060,68.931885 321.974060,74.395622 
M354.603699,65.986221 
	C354.054932,77.333862 360.393738,84.954002 371.020142,85.721107 
	C380.584961,86.411575 389.056793,79.778656 390.286163,70.637062 
	C391.667816,60.362911 385.703552,52.247505 375.477844,50.487827 
	C365.375641,48.749397 356.795013,54.825684 354.603699,65.986221 
M400.958954,71.412216 
	C400.912231,74.073082 401.577606,77.036583 400.612549,79.307144 
	C399.701996,81.449539 397.075867,82.862762 395.259247,84.545914 
	C399.803375,84.545914 404.376648,84.545914 408.310669,84.545914 
	C406.562134,82.502678 403.600861,80.631844 403.363983,78.463394 
	C402.690186,72.295425 403.127533,66.006073 403.127533,59.006981 
	C412.727020,67.928719 420.184998,77.910110 430.194427,86.120766 
	C430.194427,78.014801 430.140503,71.218513 430.212341,64.423561 
	C430.265015,59.442924 429.009766,53.859409 435.497040,51.330391 
	C431.098785,51.330391 426.700531,51.330391 422.670685,51.330391 
	C424.418945,53.326595 427.342957,55.126133 427.578003,57.226574 
	C428.244507,63.182838 427.811554,69.262131 427.811554,73.424667 
	C421.237335,67.465698 413.657715,61.184315 406.824921,54.174919 
	C402.904877,50.153564 399.035553,50.760387 394.064911,51.980663 
	C401.565125,53.091621 401.221558,58.268204 400.977539,63.449871 
	C400.868011,65.775604 400.958954,68.110764 400.958954,71.412216 
z"/>
<path fill="#03354B" opacity="1.000000" stroke="none" 
	d="
M151.000244,13.391382 
	C184.279572,13.391392 217.058899,13.391392 250.130646,13.391392 
	C250.130646,50.595665 250.130646,87.323669 250.130646,124.330414 
	C171.750885,124.330414 93.546387,124.330414 15.083321,124.330414 
	C15.083321,87.406807 15.083321,50.672180 15.083321,13.391372 
	C60.309799,13.391372 105.405022,13.391372 151.000244,13.391382 
M171.143967,68.640121 
	C172.990936,70.063744 175.139297,71.230316 176.619949,72.966362 
	C179.401901,76.228195 181.468399,80.140778 184.442062,83.187782 
	C187.804581,86.633240 190.870712,86.572235 194.821762,84.052422 
	C186.992981,81.604546 184.877792,73.906670 179.861786,68.441521 
	C180.812576,68.074745 181.390045,67.844261 181.972916,67.628372 
	C186.119827,66.092400 189.549454,63.953640 189.066147,58.752811 
	C188.573624,53.452610 184.438614,51.818932 180.296158,51.510746 
	C173.341293,50.993332 166.320007,51.369167 159.326660,51.369167 
	C165.944244,52.935181 164.131058,58.121422 164.236847,62.364414 
	C164.327988,66.020599 164.301010,69.681557 164.244095,73.339134 
	C164.176300,77.697350 165.801346,82.850845 159.326813,84.637642 
	C164.692703,84.637642 170.058594,84.637642 176.067642,84.637642 
	C170.059525,81.063232 170.043015,81.063156 170.076828,73.971306 
	C170.084702,72.319557 170.246811,70.668541 171.143967,68.640121 
M154.054443,64.943710 
	C151.830231,55.091961 144.151077,49.253513 134.664810,50.201797 
	C124.840279,51.183895 118.144348,58.417267 118.085480,68.111839 
	C118.029236,77.375870 124.325378,84.579048 133.772644,85.671288 
	C144.113815,86.866875 155.730652,79.294296 154.054443,64.943710 
M78.689789,68.485039 
	C77.999237,74.339432 81.829117,81.897781 72.644188,84.567108 
	C77.381195,84.567108 82.118195,84.567108 86.773666,84.567108 
	C84.754745,82.795982 81.535004,81.335129 81.363762,79.577332 
	C80.733459,73.106812 81.113571,66.537872 81.113571,58.987015 
	C89.105255,67.453758 96.262337,75.096184 103.508919,82.652779 
	C104.673271,83.866943 106.237198,84.697922 108.016098,85.998192 
	C108.016098,78.693993 107.900284,72.563484 108.050636,66.439522 
	C108.184860,60.972588 106.181984,54.699661 113.030746,51.272682 
	C108.740723,51.272682 104.450691,51.272682 101.020462,51.272682 
	C102.563736,53.734432 105.119492,56.087566 105.469788,58.732761 
	C106.175209,64.059738 105.679771,69.545731 105.679771,73.552673 
	C98.913811,67.383728 91.265182,61.014957 84.383743,53.903786 
	C80.398819,49.785828 76.503738,51.247509 71.930283,51.753197 
	C78.687485,53.174290 79.262413,57.736866 78.713303,63.021137 
	C78.559189,64.504242 78.689781,66.016930 78.689789,68.485039 
z"/>
<path fill="#104054" opacity="1.000000" stroke="none" 
	d="
M321.974060,73.910004 
	C321.974060,68.931885 321.769135,64.427307 322.033325,59.950405 
	C322.283478,55.711575 322.147552,52.030212 316.795166,51.136463 
	C322.169983,51.136463 327.544830,51.136463 334.411682,51.136463 
	C331.483429,52.197319 329.875854,52.779705 328.005615,53.457264 
	C328.005615,57.503002 328.005615,61.589432 328.005615,67.394180 
	C333.318970,62.315559 337.723236,58.105865 342.482422,53.556946 
	C340.603394,52.729828 339.343079,52.175060 337.148621,51.209087 
	C342.589447,51.209087 347.032410,51.209087 350.286743,51.209087 
	C345.548004,55.060291 340.187469,59.416817 334.272644,64.223846 
	C340.902740,71.194824 343.222198,80.840324 353.892609,84.664169 
	C347.179291,84.664169 341.688385,84.664169 335.686340,84.664169 
	C337.137146,83.899925 338.290009,83.292648 339.973663,82.405754 
	C336.453735,77.350731 332.988708,72.374550 329.523712,67.398369 
	C328.951111,67.588936 328.378540,67.779503 327.805969,67.970070 
	C327.805969,72.481323 327.453339,77.038521 328.031219,81.474495 
	C328.194336,82.726570 331.081299,83.623810 332.643555,84.634979 
	C327.640656,84.634979 322.246643,84.634979 316.852631,84.634979 
	C323.771301,83.924500 321.835846,78.651649 321.974060,73.910004 
z"/>
<path fill="#124156" opacity="1.000000" stroke="none" 
	d="
M354.662933,65.585983 
	C356.795013,54.825684 365.375641,48.749397 375.477844,50.487827 
	C385.703552,52.247505 391.667816,60.362911 390.286163,70.637062 
	C389.056793,79.778656 380.584961,86.411575 371.020142,85.721107 
	C360.393738,84.954002 354.054932,77.333862 354.662933,65.585983 
M362.128784,74.918907 
	C362.965210,76.341850 363.645020,77.890755 364.668518,79.163216 
	C367.338715,82.482910 370.797821,84.172241 375.141052,83.439346 
	C379.535553,82.697807 382.263641,79.873245 383.413666,75.786064 
	C385.189423,69.474770 384.745972,63.257133 380.990753,57.681606 
	C378.295166,53.679317 374.501709,51.546017 369.503235,52.599838 
	C364.502350,53.654167 361.615997,57.128773 361.155365,61.899265 
	C360.767395,65.917542 361.612823,70.054916 362.128784,74.918907 
z"/>
<path fill="#0A3B50" opacity="1.000000" stroke="none" 
	d="
M400.958954,70.926933 
	C400.958954,68.110764 400.868011,65.775604 400.977539,63.449871 
	C401.221558,58.268204 401.565125,53.091621 394.064911,51.980663 
	C399.035553,50.760387 402.904877,50.153564 406.824921,54.174919 
	C413.657715,61.184315 421.237335,67.465698 427.811554,73.424667 
	C427.811554,69.262131 428.244507,63.182838 427.578003,57.226574 
	C427.342957,55.126133 424.418945,53.326595 422.670685,51.330391 
	C426.700531,51.330391 431.098785,51.330391 435.497040,51.330391 
	C429.009766,53.859409 430.265015,59.442924 430.212341,64.423561 
	C430.140503,71.218513 430.194427,78.014801 430.194427,86.120766 
	C420.184998,77.910110 412.727020,67.928719 403.127533,59.006981 
	C403.127533,66.006073 402.690186,72.295425 403.363983,78.463394 
	C403.600861,80.631844 406.562134,82.502678 408.310669,84.545914 
	C404.376648,84.545914 399.803375,84.545914 395.259247,84.545914 
	C397.075867,82.862762 399.701996,81.449539 400.612549,79.307144 
	C401.577606,77.036583 400.912231,74.073082 400.958954,70.926933 
z"/>
<path fill="#F1F4F5" opacity="1.000000" stroke="none" 
	d="
M170.740967,68.828659 
	C170.246811,70.668541 170.084702,72.319557 170.076828,73.971306 
	C170.043015,81.063156 170.059525,81.063232 176.067642,84.637642 
	C170.058594,84.637642 164.692703,84.637642 159.326813,84.637642 
	C165.801346,82.850845 164.176300,77.697350 164.244095,73.339134 
	C164.301010,69.681557 164.327988,66.020599 164.236847,62.364414 
	C164.131058,58.121422 165.944244,52.935181 159.326660,51.369167 
	C166.320007,51.369167 173.341293,50.993332 180.296158,51.510746 
	C184.438614,51.818932 188.573624,53.452610 189.066147,58.752811 
	C189.549454,63.953640 186.119827,66.092400 181.972916,67.628372 
	C181.390045,67.844261 180.812576,68.074745 179.861786,68.441521 
	C184.877792,73.906670 186.992981,81.604546 194.821762,84.052422 
	C190.870712,86.572235 187.804581,86.633240 184.442062,83.187782 
	C181.468399,80.140778 179.401901,76.228195 176.619949,72.966362 
	C175.139297,71.230316 172.990936,70.063744 170.740967,68.828659 
M181.486343,64.016632 
	C181.626984,61.401016 182.861771,57.332893 181.694473,56.453594 
	C178.697021,54.195667 174.633606,53.352840 170.429871,51.725040 
	C170.429871,57.631329 170.429871,61.962597 170.429871,67.159439 
	C174.280029,66.208961 177.580093,65.394295 181.486343,64.016632 
z"/>
<path fill="#EEF2F3" opacity="1.000000" stroke="none" 
	d="
M154.099335,65.377708 
	C155.730652,79.294296 144.113815,86.866875 133.772644,85.671288 
	C124.325378,84.579048 118.029236,77.375870 118.085480,68.111839 
	C118.144348,58.417267 124.840279,51.183895 134.664810,50.201797 
	C144.151077,49.253513 151.830231,55.091961 154.099335,65.377708 
M129.402771,80.216278 
	C137.324799,86.331825 145.897018,83.397041 147.715790,73.728600 
	C148.822495,67.845444 147.999420,62.090611 144.301636,57.128300 
	C141.625137,53.536522 138.019257,51.796242 133.444443,52.629894 
	C128.806000,53.475143 126.127907,56.545723 125.095528,60.858982 
	C123.475403,67.627808 124.348167,74.050667 129.402771,80.216278 
z"/>
<path fill="#F3F6F7" opacity="1.000000" stroke="none" 
	d="
M78.689789,68.000549 
	C78.689781,66.016930 78.559189,64.504242 78.713303,63.021137 
	C79.262413,57.736866 78.687485,53.174290 71.930283,51.753197 
	C76.503738,51.247509 80.398819,49.785828 84.383743,53.903786 
	C91.265182,61.014957 98.913811,67.383728 105.679771,73.552673 
	C105.679771,69.545731 106.175209,64.059738 105.469788,58.732761 
	C105.119492,56.087566 102.563736,53.734432 101.020462,51.272682 
	C104.450691,51.272682 108.740723,51.272682 113.030746,51.272682 
	C106.181984,54.699661 108.184860,60.972588 108.050636,66.439522 
	C107.900284,72.563484 108.016098,78.693993 108.016098,85.998192 
	C106.237198,84.697922 104.673271,83.866943 103.508919,82.652779 
	C96.262337,75.096184 89.105255,67.453758 81.113571,58.987015 
	C81.113571,66.537872 80.733459,73.106812 81.363762,79.577332 
	C81.535004,81.335129 84.754745,82.795982 86.773666,84.567108 
	C82.118195,84.567108 77.381195,84.567108 72.644188,84.567108 
	C81.829117,81.897781 77.999237,74.339432 78.689789,68.000549 
z"/>
<path fill="#FBFCFC" opacity="1.000000" stroke="none" 
	d="
M362.020508,74.529236 
	C361.612823,70.054916 360.767395,65.917542 361.155365,61.899265 
	C361.615997,57.128773 364.502350,53.654167 369.503235,52.599838 
	C374.501709,51.546017 378.295166,53.679317 380.990753,57.681606 
	C384.745972,63.257133 385.189423,69.474770 383.413666,75.786064 
	C382.263641,79.873245 379.535553,82.697807 375.141052,83.439346 
	C370.797821,84.172241 367.338715,82.482910 364.668518,79.163216 
	C363.645020,77.890755 362.965210,76.341850 362.020508,74.529236 
z"/>
<path fill="#083A4F" opacity="1.000000" stroke="none" 
	d="
M181.183258,64.298126 
	C177.580093,65.394295 174.280029,66.208961 170.429871,67.159439 
	C170.429871,61.962597 170.429871,57.631329 170.429871,51.725040 
	C174.633606,53.352840 178.697021,54.195667 181.694473,56.453594 
	C182.861771,57.332893 181.626984,61.401016 181.183258,64.298126 
z"/>
<path fill="#05374D" opacity="1.000000" stroke="none" 
	d="
M129.142029,79.936554 
	C124.348167,74.050667 123.475403,67.627808 125.095528,60.858982 
	C126.127907,56.545723 128.806000,53.475143 133.444443,52.629894 
	C138.019257,51.796242 141.625137,53.536522 144.301636,57.128300 
	C147.999420,62.090611 148.822495,67.845444 147.715790,73.728600 
	C145.897018,83.397041 137.324799,86.331825 129.142029,79.936554 
z"/>
</svg>